<svg height="495pt" viewBox="-15 0 495 495.992" width="495pt" xmlns="http://www.w3.org/2000/svg"><path d="m444.585938 99.535156c-22.9375 7.632813-48.664063 5.207032-69.707032-6.480468l-12.191406-6.773438 26.257812-45.9375c2.320313-4.0625 3.550782-8.6875 3.550782-13.382812 0-14.863282-12.097656-26.960938-26.96875-26.960938h-2.054688c-9.632812 0-18.59375 5.183594-23.382812 13.535156l-148.851563 259.320313-32.878906-55.96875 28.585937-16.695313-24.648437-43.175781-16.136719 9.425781c-5.601562-6.6875-13.238281-11.371094-21.71875-13.328125l-20.921875-102.707031-103.023437-46.832031v112.1875l77.191406 64.054687c-1.246094 3.863282-2.101562 7.910156-2.101562 12.183594 0 4.863281.980468 9.585938 2.695312 14.070312l-16.664062 9.738282 24.648437 43.175781 30.414063-17.761719 46.894531 79.816406-79.804688 139.03125c-3.242187 5.515626-4.121093 11.953126-2.464843 18.128907 1.664062 6.226562 5.6875 11.425781 11.34375 14.632812 3.765624 2.136719 7.886718 3.160157 11.96875 3.152344 8.367187 0 16.535156-4.289063 21.054687-11.976563l65.792969-115.488281 67.902344 115.585938c4.480468 7.613281 12.632812 11.886719 20.984374 11.886719 4.082032 0 8.207032-1.015626 11.992188-3.167969 5.65625-3.199219 9.679688-8.398438 11.34375-14.625 1.65625-6.167969.777344-12.605469-2.464844-18.128907l-82.199218-139.917968 78.839843-138.382813c2.023438-3.5625 5.824219-5.769531 9.921875-5.769531h1.292969c6.296875 0 11.417969 5.121094 11.417969 11.414062 0 1.769532-.417969 3.53125-1.207032 5.113282l-51.738281 103.472656h42.335938c58.945312 0 111.929687-32.753906 138.289062-85.472656 10.671875-21.351563 16.320313-45.261719 16.320313-69.144532v-48.496093zm-81.105469-83.535156h2.054687c6.039063 0 10.960938 4.910156 10.960938 10.960938 0 1.902343-.496094 3.792968-1.449219 5.445312l-9 15.746094-20.75-11.527344 8.671875-15.113281c1.953125-3.398438 5.589844-5.511719 9.511719-5.511719zm-26.152344 34.496094 20.785156 11.542968-9.417969 16.472657-20.816406-11.558594zm-210.550781 366.792968 95.496094-166.359374 13.199218 8.023437-94.785156 166.367187zm5.992187 21.933594-7.921875 13.898438-14-8.082032 7.960938-13.871093zm-24.738281-286.453125c-2.253906.429688-4.40625 1.125-6.511719 1.917969l-72.839843-120.726562 60.792968 27.632812zm-91.535156-44.53125v-63.496093l71.464844 118.457031c-.808594.777343-1.511719 1.640625-2.257813 2.480469zm75.097656 83.761719c0-13.230469 10.765625-24 24-24 6.199219 0 12.039062 2.511719 16.429688 6.695312l-39.625 23.136719c-.496094-1.902343-.804688-3.847656-.804688-5.832031zm-8.226562 29.632812 73.039062-42.648437 8.785156 15.382813-73.039062 42.648437zm47.136718 11.519532 14.03125-8.191406 37.527344 63.878906-9.308594 16.222656zm-29.960937 245.757812c-1.894531-1.078125-3.238281-2.804687-3.789063-4.847656-.539062-2-.25-4.09375.847656-5.949219l5.277344-9.191406 14.050782 8.109375-5.105469 8.960938c-2.265625 3.847656-7.328125 5.144531-11.28125 2.917968zm151.191406-39.40625 14.074219-8.128906 8.101562 13.792969-14.070312 8.128906zm36.496094 34.558594c-.550781 2.050781-1.894531 3.777344-3.78125 4.839844-3.945313 2.242187-9.007813.9375-11.28125-2.917969l-5.222657-8.886719 14.070313-8.128906 5.410156 9.207031c1.054688 1.792969 1.34375 3.886719.804688 5.886719zm-30.527344-56.476562-14.070313 8.125-43.023437-73.230469 9.277344-16.289063zm75.898437-217.90625c1.894532-3.792969 2.894532-8.03125 2.894532-12.265626 0-15.117187-12.304688-27.414062-27.417969-27.414062h-1.292969c-9.832031 0-18.960937 5.304688-23.824218 13.839844l-40.5625 71.191406-13.152344-7.992188 89.675781-156.214843 47.191406 26.214843c15.078125 8.386719 32.207031 12.703126 49.382813 12.832032v26.511718c0 22.488282-7.601563 44.640626-21.40625 62.386719-19.394532 24.933594-48.617188 39.230469-80.203125 39.230469h-5.445313zm114.894532-58.289063c0 21.410156-5.054688 42.839844-14.632813 61.984375-23.632812 47.265625-71.136719 76.625-123.976562 76.625h-16.445313l8-16h13.445313c36.554687 0 70.386719-16.542969 92.832031-45.398438 15.976562-20.546874 24.777344-46.1875 24.777344-72.210937v-27.71875c5.398437-.800781 10.769531-1.902344 16-3.574219zm0 0"/></svg>