<svg id="Capa_1" enable-background="new 0 0 511.985 511.985" height="512" viewBox="0 0 511.985 511.985" width="512" xmlns="http://www.w3.org/2000/svg"><g><path d="m415.146 107.328-14.082-14.083c-5.979-5.979-13.929-9.271-22.384-9.271s-16.404 3.293-22.383 9.272l-347.041 347.059c-12.341 12.341-12.341 32.423 0 44.765l14.083 14.083c5.979 5.979 13.928 9.272 22.383 9.272s16.404-3.293 22.384-9.272l347.041-347.06c12.34-12.342 12.34-32.423-.001-44.765zm-361.183 377.683c-2.201 2.201-5.128 3.414-8.241 3.414-3.112 0-6.039-1.212-8.24-3.414l-14.083-14.083c-4.544-4.544-4.544-11.937 0-16.481l261.916-261.929 30.563 30.564zm347.041-347.06-70.984 70.988-30.563-30.564 70.984-70.988c2.201-2.201 5.128-3.414 8.24-3.414 3.113 0 6.04 1.212 8.241 3.414l14.082 14.083c4.544 4.544 4.544 11.937 0 16.481z"/><path d="m484.451 267.08-30.561-12.054c-9.483-3.74-17.067-11.325-20.808-20.809l-12.053-30.562c-1.507-3.821-5.196-6.332-9.303-6.332s-7.796 2.511-9.303 6.332l-12.053 30.561c-3.741 9.485-11.325 17.069-20.809 20.81l-30.561 12.054c-3.82 1.507-6.331 5.196-6.331 9.303s2.511 7.796 6.331 9.303l30.561 12.053c9.483 3.74 17.067 11.325 20.809 20.81l12.053 30.562c1.507 3.821 5.196 6.332 9.303 6.332s7.796-2.511 9.303-6.332l12.053-30.562c3.74-9.484 11.324-17.069 20.808-20.809l30.561-12.053c3.82-1.507 6.331-5.196 6.331-9.303 0-4.108-2.511-7.797-6.331-9.304zm-37.899 12.053c-14.619 5.767-26.31 17.458-32.075 32.077l-2.75 6.974-2.75-6.974c-5.767-14.62-17.458-26.311-32.076-32.077l-6.975-2.75 6.975-2.751c14.618-5.766 26.31-17.457 32.076-32.077l2.75-6.974 2.75 6.973c5.766 14.619 17.456 26.311 32.075 32.077l6.975 2.751z"/><path d="m505.654 48.245-19.465-7.677c-5.108-2.015-9.193-6.101-11.208-11.209l-7.678-19.466c-1.507-3.82-5.196-6.331-9.303-6.331s-7.796 2.511-9.303 6.332l-7.677 19.466c-2.015 5.108-6.101 9.194-11.208 11.209l-19.465 7.677c-3.82 1.507-6.331 5.196-6.331 9.303 0 4.106 2.511 7.796 6.331 9.303l19.465 7.678c5.107 2.015 9.193 6.1 11.208 11.208l7.677 19.466c1.507 3.821 5.195 6.332 9.303 6.332 4.106 0 7.796-2.511 9.303-6.331l7.678-19.467c2.015-5.108 6.1-9.193 11.207-11.208l19.466-7.678c3.82-1.507 6.331-5.196 6.331-9.303 0-4.109-2.511-7.798-6.331-9.304zm-47.653 26.567c-3.807-7.396-9.869-13.458-17.265-17.265 7.396-3.806 13.458-9.869 17.265-17.265 3.806 7.396 9.868 13.458 17.265 17.265-7.397 3.806-13.46 9.869-17.265 17.265z"/><path d="m176.448 96.548 27.672 10.915c8.345 3.291 15.019 9.965 18.31 18.311l10.914 27.674c1.507 3.82 5.196 6.331 9.303 6.331s7.796-2.511 9.303-6.332l10.913-27.673c3.291-8.345 9.965-15.02 18.31-18.311l27.673-10.915c3.82-1.507 6.331-5.196 6.331-9.303s-2.511-7.796-6.331-9.303l-27.673-10.915c-8.345-3.291-15.019-9.965-18.31-18.31l-10.913-27.674c-1.507-3.82-5.195-6.332-9.303-6.332-4.106 0-7.796 2.511-9.303 6.331l-10.914 27.674c-3.291 8.345-9.965 15.019-18.31 18.31l-27.672 10.915c-3.82 1.507-6.331 5.196-6.331 9.303s2.511 7.797 6.331 9.304zm35.01-10.914c13.479-5.316 24.26-16.097 29.577-29.578l1.611-4.085 1.61 4.085c5.317 13.481 16.098 24.261 29.577 29.578l4.087 1.612-4.087 1.612c-13.479 5.317-24.26 16.098-29.577 29.579l-1.61 4.084-1.611-4.085c-5.317-13.48-16.098-24.261-29.577-29.578l-4.087-1.612z"/></g></svg>