<?xml version="1.0"?>
<svg width="58" height="58" viewBox="0 0 58 58" fill="none" xmlns="http://www.w3.org/2000/svg">
  <g clip-path="url(#clip0)" filter="url(#filter0_d)">
    <path d="M51.2562 19.5708L47.3396 19.0729C47.0167 18.0792 46.6187 17.1208 46.1542 16.2104L48.5729 13.0958C49.5521 11.8354 49.4375 10.0562 48.3187 8.97292L45.0375 5.69167C43.9437 4.5625 42.1646 4.45 40.9021 5.42708L37.7917 7.84583C36.8812 7.38125 35.9229 6.98333 34.9271 6.66042L34.4292 2.75C34.2417 1.18125 32.9104 0 31.3333 0H26.6667C25.0896 0 23.7583 1.18125 23.5708 2.74375L23.0729 6.66042C22.0771 6.98333 21.1187 7.37917 20.2083 7.84583L17.0958 5.42708C15.8375 4.45 14.0583 4.5625 12.9729 5.68125L9.69167 8.96042C8.5625 10.0562 8.44792 11.8354 9.42708 13.0979L11.8458 16.2104C11.3792 17.1208 10.9833 18.0792 10.6604 19.0729L6.75 19.5708C5.18125 19.7583 4 21.0896 4 22.6667V27.3333C4 28.9104 5.18125 30.2417 6.74375 30.4292L10.6604 30.9271C10.9833 31.9208 11.3812 32.8792 11.8458 33.7896L9.42708 36.9042C8.44792 38.1646 8.5625 39.9437 9.68125 41.0271L12.9625 44.3083C14.0583 45.4354 15.8354 45.5479 17.0979 44.5708L20.2104 42.1521C21.1208 42.6187 22.0792 43.0167 23.0729 43.3375L23.5708 47.2458C23.7583 48.8187 25.0896 50 26.6667 50H31.3333C32.9104 50 34.2417 48.8187 34.4292 47.2562L34.9271 43.3396C35.9208 43.0167 36.8792 42.6187 37.7896 42.1542L40.9042 44.5729C42.1646 45.5521 43.9437 45.4375 45.0271 44.3187L48.3083 41.0375C49.4375 39.9417 49.5521 38.1646 48.5729 36.9021L46.1542 33.7896C46.6208 32.8792 47.0187 31.9208 47.3396 30.9271L51.2479 30.4292C52.8167 30.2417 53.9979 28.9104 53.9979 27.3333V22.6667C54 21.0896 52.8187 19.7583 51.2562 19.5708ZM29 35.4167C23.2562 35.4167 18.5833 30.7437 18.5833 25C18.5833 19.2562 23.2562 14.5833 29 14.5833C34.7437 14.5833 39.4167 19.2562 39.4167 25C39.4167 30.7437 34.7437 35.4167 29 35.4167Z" fill="white"/>
  </g>
  <defs>
    <filter id="filter0_d" x="0" y="0" width="58" height="58" filterUnits="userSpaceOnUse" color-interpolation-filters="sRGB">
      <feFlood flood-opacity="0" result="BackgroundImageFix"/>
      <feColorMatrix in="SourceAlpha" type="matrix" values="0 0 0 0 0 0 0 0 0 0 0 0 0 0 0 0 0 0 127 0"/>
      <feOffset dy="4"/>
      <feGaussianBlur stdDeviation="2"/>
      <feColorMatrix type="matrix" values="0 0 0 0 0 0 0 0 0 0 0 0 0 0 0 0 0 0 0.25 0"/>
      <feBlend mode="normal" in2="BackgroundImageFix" result="effect1_dropShadow"/>
      <feBlend mode="normal" in="SourceGraphic" in2="effect1_dropShadow" result="shape"/>
    </filter>
  </defs>
</svg>
