<?xml version="1.0"?>
<svg width="50" height="55" viewBox="0 0 50 55" fill="none" xmlns="http://www.w3.org/2000/svg">
<g filter="url(#filter0_d)">
<path d="M42.184 42.513C42.094 36.7519 40.2992 31.5134 37.1081 27.7206C33.9355 23.951 29.6359 21.875 25 21.875C20.3641 21.875 16.0645 23.951 12.8919 27.7206C9.70381 31.5094 7.91016 36.7405 7.81641 42.4945C9.61914 43.3976 17.0791 46.875 25 46.875C33.5652 46.875 40.5122 43.418 42.184 42.513Z" fill="white"/>
<path d="M25 20.3125C29.7462 20.3125 33.5938 16.4649 33.5938 11.7188C33.5938 6.97255 29.7462 3.125 25 3.125C20.2538 3.125 16.4062 6.97255 16.4062 11.7188C16.4062 16.4649 20.2538 20.3125 25 20.3125Z" fill="white"/>
</g>
<defs>
<filter id="filter0_d" x="-4" y="0" width="58" height="58" filterUnits="userSpaceOnUse" color-interpolation-filters="sRGB">
<feFlood flood-opacity="0" result="BackgroundImageFix"/>
<feColorMatrix in="SourceAlpha" type="matrix" values="0 0 0 0 0 0 0 0 0 0 0 0 0 0 0 0 0 0 127 0"/>
<feOffset dy="4"/>
<feGaussianBlur stdDeviation="2"/>
<feColorMatrix type="matrix" values="0 0 0 0 0 0 0 0 0 0 0 0 0 0 0 0 0 0 0.25 0"/>
<feBlend mode="normal" in2="BackgroundImageFix" result="effect1_dropShadow"/>
<feBlend mode="normal" in="SourceGraphic" in2="effect1_dropShadow" result="shape"/>
</filter>
</defs>
</svg>
